<svg width="15" height="15" viewBox="0 0 15 15" fill="none" xmlns="http://www.w3.org/2000/svg">
<path d="M13.125 2.5C13.2781 2.50002 13.4258 2.55622 13.5402 2.65795C13.6546 2.75967 13.7277 2.89984 13.7456 3.05187L13.75 3.125V7.1875C13.75 7.74692 13.5358 8.28509 13.1512 8.69138C12.7667 9.09767 12.2411 9.34119 11.6825 9.37187L11.5625 9.375H3.38437L5.44187 11.4331C5.54949 11.5407 5.61413 11.6839 5.62368 11.8358C5.63323 11.9877 5.58703 12.1379 5.49375 12.2581L5.44187 12.3169C5.33425 12.4245 5.19107 12.4891 5.03918 12.4987C4.88728 12.5082 4.73713 12.462 4.61688 12.3688L4.55813 12.3169L1.43312 9.19187C1.41123 9.17006 1.39097 9.14666 1.3725 9.12188L1.32812 9.05312L1.29438 8.98188L1.2725 8.91625L1.25687 8.84313L1.2525 8.80562L1.25 8.75L1.25188 8.70313L1.2625 8.62437L1.28125 8.555L1.30875 8.48562L1.34125 8.42438L1.38125 8.36688L1.43312 8.30813L4.55813 5.18313C4.6706 5.07103 4.82152 5.00595 4.98024 5.00111C5.13896 4.99626 5.29357 5.05201 5.41267 5.15703C5.53178 5.26205 5.60644 5.40847 5.6215 5.56655C5.63656 5.72462 5.59088 5.88251 5.49375 6.00812L5.44187 6.06687L3.38437 8.125H11.5625C11.7955 8.125 12.0201 8.03828 12.1926 7.88172C12.3651 7.72516 12.4731 7.50999 12.4956 7.27813L12.5 7.1875V3.125C12.5 2.95924 12.5658 2.80027 12.6831 2.68306C12.8003 2.56585 12.9592 2.5 13.125 2.5Z" fill="#747474"/>
</svg>
