<svg width="15" height="15" viewBox="0 0 15 15" fill="none" xmlns="http://www.w3.org/2000/svg">
<path d="M7.5 12.5C7.15625 12.5 6.86188 12.3775 6.61688 12.1325C6.37188 11.8875 6.24958 11.5933 6.25 11.25C6.25 10.9063 6.3725 10.6119 6.6175 10.3669C6.8625 10.1219 7.15667 9.99958 7.5 10C7.84375 10 8.13813 10.1225 8.38313 10.3675C8.62813 10.6125 8.75042 10.9067 8.75 11.25C8.75 11.5938 8.6275 11.8881 8.3825 12.1331C8.1375 12.3781 7.84333 12.5004 7.5 12.5ZM7.5 8.75C7.15625 8.75 6.86188 8.6275 6.61688 8.3825C6.37188 8.1375 6.24958 7.84333 6.25 7.5C6.25 7.15625 6.3725 6.86188 6.6175 6.61688C6.8625 6.37188 7.15667 6.24958 7.5 6.25C7.84375 6.25 8.13813 6.3725 8.38313 6.6175C8.62813 6.8625 8.75042 7.15667 8.75 7.5C8.75 7.84375 8.6275 8.13813 8.3825 8.38313C8.1375 8.62813 7.84333 8.75042 7.5 8.75ZM7.5 5C7.15625 5 6.86188 4.8775 6.61688 4.6325C6.37188 4.3875 6.24958 4.09333 6.25 3.75C6.25 3.40625 6.3725 3.11188 6.6175 2.86688C6.8625 2.62188 7.15667 2.49958 7.5 2.5C7.84375 2.5 8.13813 2.6225 8.38313 2.8675C8.62813 3.1125 8.75042 3.40667 8.75 3.75C8.75 4.09375 8.6275 4.38813 8.3825 4.63313C8.1375 4.87813 7.84333 5.00042 7.5 5Z" fill="#747474"/>
</svg>
