<svg width="15" height="15" viewBox="0 0 15 15" fill="none" xmlns="http://www.w3.org/2000/svg">
<path d="M8.75 10H11.875V13.125M6.25 5H3.125V1.875M12.1363 5.62688C11.7858 4.75949 11.1991 4.00782 10.4427 3.45729C9.6864 2.90676 8.79077 2.57946 7.85767 2.5126C6.92457 2.44574 5.99142 2.64199 5.16431 3.07905C4.33719 3.51611 3.64927 4.17645 3.17875 4.985M2.86375 9.37312C3.21425 10.2403 3.80098 10.9919 4.55727 11.5423C5.31356 12.0927 6.20908 12.4199 7.14206 12.4868C8.07504 12.5536 9.00807 12.3574 9.83511 11.9205C10.6622 11.4836 11.3501 10.8234 11.8206 10.015" stroke="#747474" stroke-width="1.25" stroke-linecap="round" stroke-linejoin="round"/>
</svg>
